<svg width="590" height="115" viewBox="0 0 590 115" fill="none" xmlns="http://www.w3.org/2000/svg">
<rect width="590" height="115" rx="10" fill="#260A52"/>
<path d="M92.7987 31.5829L93.5973 30.3849H99.2323L106.198 55.2319H106.908L113.919 30.3849H119.509L120.308 31.5829L111.611 61H101.495L92.7987 31.5829ZM119.952 53.8121V44.7607C119.952 39.9687 122.348 37.5728 127.14 37.5728H133.352C138.143 37.5728 140.539 39.9687 140.539 44.7607V53.8121C140.539 58.604 138.143 61 133.352 61H127.14C122.348 61 119.952 58.604 119.952 53.8121ZM126.075 54.2558C126.075 55.2024 126.548 55.6756 127.495 55.6756H132.997C133.943 55.6756 134.416 55.2024 134.416 54.2558V44.317C134.416 43.3704 133.943 42.8971 132.997 42.8971H127.495C126.548 42.8971 126.075 43.3704 126.075 44.317V54.2558ZM143.548 53.8121V44.7607C143.548 39.9687 145.944 37.5728 150.735 37.5728H158.988L161.65 39.5694V42.8971H151.09C150.144 42.8971 149.671 43.3704 149.671 44.317V54.2558C149.671 55.2024 150.144 55.6756 151.09 55.6756H161.65V59.0034L158.988 61H150.735C145.944 61 143.548 58.604 143.548 53.8121ZM163.85 53.8121V44.7607C163.85 39.9687 166.246 37.5728 171.038 37.5728H176.806C181.598 37.5728 183.994 39.9687 183.994 44.7607V51.5492H169.973V54.2558C169.973 55.2024 170.447 55.6756 171.393 55.6756H183.107V59.0034L180.445 61H171.038C166.246 61 163.85 58.604 163.85 53.8121ZM169.973 46.8461H177.871V44.317C177.871 43.3704 177.398 42.8971 176.451 42.8971H171.393C170.447 42.8971 169.973 43.3704 169.973 44.317V46.8461ZM166.956 32.5146L173.922 25.6817L180.888 32.5146L178.27 35.2655L173.922 31.1392L169.574 35.2655L166.956 32.5146ZM194.832 53.8121V44.7607C194.832 39.9687 197.228 37.5728 202.02 37.5728H214.976V62.6861C214.976 67.478 212.58 69.8739 207.788 69.8739H199.491L196.829 67.8773V64.5496H207.433C208.38 64.5496 208.853 64.0763 208.853 63.1297V61H202.02C197.228 61 194.832 58.604 194.832 53.8121ZM200.955 54.2558C200.955 55.2024 201.428 55.6756 202.375 55.6756H208.853V42.8971H202.375C201.428 42.8971 200.955 43.3704 200.955 44.317V54.2558ZM224.472 61C219.681 61 217.285 58.6484 217.285 53.9452C217.285 49.242 219.681 46.8904 224.472 46.8904H230.595V44.317C230.595 43.3704 230.122 42.8971 229.176 42.8971H219.769V39.5694L222.431 37.5728H229.531C234.323 37.5728 236.719 39.9687 236.719 44.7607V61H224.472ZM223.408 54.2558C223.408 55.2024 223.881 55.6756 224.827 55.6756H230.595V51.5936H224.827C223.881 51.5936 223.408 52.0669 223.408 53.0134V54.2558ZM240.259 61V37.5728H253.215C258.007 37.5728 260.403 39.9687 260.403 44.7607V61H254.28V44.317C254.28 43.3704 253.807 42.8971 252.86 42.8971H246.382V61H240.259ZM263.942 61V28.1664H270.065V37.5728H276.898C281.69 37.5728 284.086 39.9687 284.086 44.7607V61H277.963V44.317C277.963 43.3704 277.489 42.8971 276.543 42.8971H270.065V61H263.942ZM287.269 53.8121V44.7607C287.269 39.9687 289.665 37.5728 294.457 37.5728H300.669C305.461 37.5728 307.857 39.9687 307.857 44.7607V53.8121C307.857 58.604 305.461 61 300.669 61H294.457C289.665 61 287.269 58.604 287.269 53.8121ZM293.392 54.2558C293.392 55.2024 293.865 55.6756 294.812 55.6756H300.314C301.26 55.6756 301.734 55.2024 301.734 54.2558V44.317C301.734 43.3704 301.26 42.8971 300.314 42.8971H294.812C293.865 42.8971 293.392 43.3704 293.392 44.317V54.2558ZM311.042 53.8121V37.5728H317.165V54.2558C317.165 55.2024 317.639 55.6756 318.585 55.6756H325.063V37.5728H331.186V61H318.23C313.438 61 311.042 58.604 311.042 53.8121Z" fill="url(#paint0_linear_25_1035)"/>
<path d="M343.254 61V55.2319H350.043V36.1529H344.363V32.6921L347.336 30.3849H356.432V55.2319H362.511V61H343.254ZM365.001 53.5459V37.839C365.001 32.8696 367.486 30.3849 372.455 30.3849H378.578C383.547 30.3849 386.032 32.8696 386.032 37.839V53.5459C386.032 58.5153 383.547 61 378.578 61H372.455C367.486 61 365.001 58.5153 365.001 53.5459ZM371.39 53.9008C371.39 54.7882 371.834 55.2319 372.721 55.2319H378.312C379.199 55.2319 379.643 54.7882 379.643 53.9008V37.484C379.643 36.5966 379.199 36.1529 378.312 36.1529H372.721C371.834 36.1529 371.39 36.5966 371.39 37.484V53.9008ZM387.99 53.5459V37.839C387.99 32.8696 390.475 30.3849 395.444 30.3849H401.567C406.536 30.3849 409.021 32.8696 409.021 37.839V53.5459C409.021 58.5153 406.536 61 401.567 61H395.444C390.475 61 387.99 58.5153 387.99 53.5459ZM394.379 53.9008C394.379 54.7882 394.823 55.2319 395.71 55.2319H401.301C402.188 55.2319 402.632 54.7882 402.632 53.9008V37.484C402.632 36.5966 402.188 36.1529 401.301 36.1529H395.71C394.823 36.1529 394.379 36.5966 394.379 37.484V53.9008ZM417.911 59.7133L427.495 45.2487L418.488 31.6716L419.109 30.3849H424.7L431 40.1462L437.301 30.3849H442.891L443.512 31.6716L434.505 45.2487L444.089 59.7133L443.468 61H437.877L431 50.3956L424.123 61H418.532L417.911 59.7133ZM446.329 61V30.3849H461.237C466.207 30.3849 468.692 32.8696 468.692 37.839V43.7845C468.692 48.7539 466.207 51.2387 461.237 51.2387H452.718V61H446.329ZM452.718 45.4706H460.971C461.859 45.4706 462.302 45.0269 462.302 44.1395V37.484C462.302 36.5966 461.859 36.1529 460.971 36.1529H452.718V45.4706Z" fill="white"/>
<path d="M92 90L469 90" stroke="white" stroke-width="8" stroke-linecap="round"/>
<path d="M92 90L386 90" stroke="url(#paint1_linear_25_1035)" stroke-width="8" stroke-linecap="round"/>
<defs>
<linearGradient id="paint0_linear_25_1035" x1="90.7562" y1="52.3281" x2="681.764" y2="53.1322" gradientUnits="userSpaceOnUse">
<stop stop-color="#E54A64"/>
<stop offset="1" stop-color="#FE9851"/>
</linearGradient>
<linearGradient id="paint1_linear_25_1035" x1="91.0812" y1="90.4969" x2="526.325" y2="114.555" gradientUnits="userSpaceOnUse">
<stop stop-color="#E54A64"/>
<stop offset="1" stop-color="#FE9851"/>
</linearGradient>
</defs>
</svg>
