<svg width="100" height="58" viewBox="0 0 100 58" fill="none" xmlns="http://www.w3.org/2000/svg">
<path fill-rule="evenodd" clip-rule="evenodd" d="M0.647155 0.738599C1.51003 -0.2462 2.90902 -0.2462 3.7719 0.738599L25.4096 25.4337L47.0472 0.738599C47.4616 0.265682 48.0236 0 48.6096 0H77.7312C78.9514 0 79.9407 1.12902 79.9407 2.52174V21.1826C79.9407 22.5753 78.9514 23.7043 77.7312 23.7043H50.8191V55.4782C50.8191 56.4981 50.2808 57.4177 49.4551 57.808C48.6295 58.1983 47.6791 57.9825 47.0472 57.2613L25.4096 32.5662L3.7719 57.2613C2.90902 58.2461 1.51003 58.2461 0.647155 57.2613C-0.215718 56.2765 -0.215718 54.6799 0.647155 53.6951L22.2848 29L0.647155 4.30487C-0.215718 3.32007 -0.215718 1.7234 0.647155 0.738599ZM28.5343 29L46.4001 49.3902V21.1826C46.4001 19.7899 47.3893 18.6608 48.6096 18.6608H75.5216V5.04347H49.5248L28.5343 29Z" fill="url(#paint0_linear_1_4723)"/>
<path d="M91.9397 57.8486V43.9286H100V45.7846H93.7249V49.658H99.4697V51.514H93.7249V55.9926H100V57.8486H91.9397Z" fill="white"/>
<path d="M79.1313 57.8486V43.9286H81.0934L87.0502 54.6006V43.9286H88.8355V57.8486H86.8735L80.9166 47.1766V57.8486H79.1313Z" fill="white"/>
<path d="M66.5432 54.6611V47.1161C66.5432 44.9911 67.4683 43.9286 69.3184 43.9286H73.4193C75.2694 43.9286 76.1944 44.9911 76.1944 47.1161V54.6611C76.1944 56.7861 75.2694 57.8486 73.4193 57.8486H69.3184C67.4683 57.8486 66.5432 56.7861 66.5432 54.6611ZM68.3285 54.8629C68.3285 55.616 68.6644 55.9926 69.3361 55.9926H73.4016C74.0733 55.9926 74.4091 55.616 74.4091 54.8629V46.9144C74.4091 46.1612 74.0733 45.7846 73.4016 45.7846H69.3361C68.6644 45.7846 68.3285 46.1612 68.3285 46.9144V54.8629Z" fill="white"/>
<path d="M55.3796 57.8486V56.2347L61.9198 45.7846H55.5563V43.9286H64.147V45.5425L57.6245 55.9926H64.3237V57.8486H55.3796Z" fill="white"/>
<defs>
<linearGradient id="paint0_linear_1_4723" x1="10.4922" y1="45.675" x2="53.0419" y2="-5.7947" gradientUnits="userSpaceOnUse">
<stop stop-color="#E54A64"/>
<stop offset="1" stop-color="#FE9751"/>
</linearGradient>
</defs>
</svg>
